#!OML:ASF Y:\EmotionMaleHayes\Project 1\Capture day 1\Session 1\Male1.ASF
:FULLY-SPECIFIED
:DEGREES
1
root -29.7638 17.0851 1.30198 58.4519 87.384 59.5539
lowerback 5.79605 1.51647 -4.82831
upperback 0.547776 1.72186 -0.0923338
thorax -2.82431 0.920169 2.47161
lowerneck -23.4431 2.0111 3.30021
upperneck 21.274 1.93911 -0.934832
head 10.772 1.06684 -0.568481
rclavicle 8.67491e-015 -1.06514e-014
rhumerus -35.6657 6.90041 -90.1641
rradius 32.0134
rwrist 1.42068
rhand -11.5531 -30.095
rfingers 7.12502
rthumb 14.4876 -59.5692
lclavicle 8.67491e-015 -1.06514e-014
lhumerus -30.0709 -13.0817 93.5271
lradius 28.782
lwrist -7.03944
lhand -17.3502 -27.7638
lfingers 7.12502
lthumb 8.89743 2.02858
rfemur 8.69794 -3.11435 10.9114
rtibia 3.67923
rfoot -13.9721 4.64679
rtoes 4.73055
lfemur 11.7112 0.707594 -15.3854
ltibia 2.02244
lfoot -14.842 15.2732
ltoes -10.6429
2
root -29.7655 17.0841 1.30036 58.2934 87.3761 59.3796
lowerback 5.74733 1.49709 -4.85352
upperback 0.574146 1.69874 -0.0662252
thorax -2.7694 0.907475 2.5163
lowerneck -23.4626 2.05422 3.30409
upperneck 21.2403 1.99285 -0.923328
head 10.7643 1.09243 -0.556329
rclavicle -5.82959e-015 -9.00743e-016
rhumerus -35.6888 6.90276 -90.1219
rradius 31.8729
rwrist 1.48765
rhand -11.4482 -29.0179
rfingers 7.12502
rthumb 14.5887 -58.4849
lclavicle -5.82959e-015 -9.00743e-016
lhumerus -29.9604 -12.8244 93.5379
lradius 28.2635
lwrist -7.35194
lhand -17.7223 -28.1021
lfingers 7.12502
lthumb 8.53832 1.70526
rfemur 8.69071 -3.12286 10.8858
rtibia 3.63942
rfoot -14.0134 4.70494
rtoes 4.86599
lfemur 11.7052 0.620768 -15.4293
ltibia 1.98151
lfoot -14.8817 15.3155
ltoes -10.5185
3
root -29.7656 17.0817 1.30006 57.9426 87.2778 59.0205
lowerback 5.79109 1.52406 -4.87247
upperback 0.515733 1.72743 -0.127473
thorax -2.8554 0.92446 2.45915
lowerneck -23.3694 2.0582 3.38589
upperneck 21.2514 1.98316 -0.956397
head 10.7525 1.09161 -0.583812
rclavicle 1.74014e-014 -6.88447e-015
rhumerus -35.9651 6.81849 -90.1941
rradius 31.8668
rwrist 1.63538
rhand -11.411 -28.7086
rfingers 7.12502
rthumb 14.6246 -58.173
lclavicle 1.74014e-014 -6.88447e-015
lhumerus -30.1765 -12.8543 93.5872
lradius 28.0061
lwrist -7.6093
lhand -18.1408 -28.6969
lfingers 7.12502
lthumb 8.1344 1.12654
rfemur 8.72069 -3.06068 10.7995
rtibia 3.52733
rfoot -14.0122 4.70437
rtoes 4.8135
lfemur 11.7464 0.589681 -15.5494
ltibia 1.88957
lfoot -14.833 15.4886
ltoes -10.5955
4
root -29.7665 17.0799 1.30023 56.6413 87.2098 57.7412
lowerback 5.80691 1.54405 -4.8879
upperback 0.522417 1.75214 -0.141767
thorax -2.85933 0.936925 2.45057
lowerneck -23.3643 2.07042 3.37284
upperneck 21.2912 1.99508 -0.913615
head 10.7659 1.10209 -0.564184
rclavicle -3.15551e-015 -1.47846e-015
rhumerus -36.1511 6.79748 -90.2123
rradius 31.7816
rwrist 1.82803
rhand -11.5487 -28.9272
rfingers 7.12502
rthumb 14.4918 -58.4011
lclavicle -3.15551e-015 -1.47846e-015
lhumerus -30.2675 -12.7857 93.5746
lradius 27.7386
lwrist -7.85204
lhand -17.8346 -29.0055
lfingers 7.12502
lthumb 8.42994 0.806264
rfemur 8.74248 -3.01563 10.7735
rtibia 3.47351
rfoot -13.9721 4.68857
rtoes 4.82826
lfemur 11.8131 0.636875 -15.5803
ltibia 1.83659
lfoot -14.7485 15.6351
ltoes -10.9633
5
root -29.7675 17.0792 1.29955 56.0157 87.2021 57.1286
lowerback 5.78091 1.55246 -4.92971
upperback 0.569918 1.76513 -0.0912852
thorax -2.79946 0.942104 2.52647
lowerneck -23.4496 2.05414 3.31941
upperneck 21.3406 1.99206 -0.928112
head 10.7992 1.09423 -0.560512
rclavicle -3.62549e-015 1.08959e-014
rhumerus -36.1186 6.76358 -90.1198
rradius 31.5404
rwrist 2.02739
rhand -11.7438 -28.5584
rfingers 7.12502
rthumb 14.3039 -58.0457
lclavicle -3.62549e-015 1.08959e-014
lhumerus -30.2434 -12.6445 93.6359
lradius 27.3526
lwrist -8.38096
lhand -17.0445 -27.6591
lfingers 7.12502
lthumb 9.19242 2.12056
rfemur 8.73764 -3.22554 10.702
rtibia 3.51608
rfoot -13.9089 4.87862
rtoes 4.68326
lfemur 11.8633 0.642848 -15.5819
ltibia 1.78919
lfoot -14.7654 15.6537
ltoes -11.6971
6
root -29.7685 17.0791 1.29935 55.1904 87.2578 56.3069
lowerback 5.83172 1.55323 -4.78614
upperback 0.545903 1.77061 -0.130349
thorax -2.84761 0.944336 2.4035
lowerneck -23.4156 2.03904 3.38873
upperneck 21.3181 1.94395 -0.915285
head 10.7843 1.07987 -0.575186
rclavicle -2.1876e-015 -1.37783e-014
rhumerus -36.1774 6.6794 -90.2174
rradius 31.4042
rwrist 2.11798
rhand -11.8572 -27.9694
rfingers 7.12502
rthumb 14.1946 -57.4644
lclavicle -2.1876e-015 -1.37783e-014
lhumerus -30.3709 -12.5641 93.5707
lradius 26.9427
lwrist -9.06196
lhand -18.8055 -29.3543
lfingers 7.12502
lthumb 7.49284 0.492973
rfemur 8.73227 -3.41104 10.724
rtibia 3.56149
rfoot -13.8883 5.08459
rtoes 4.35048
lfemur 11.9099 0.636233 -15.4993
ltibia 1.69813
lfoot -14.7628 15.5694
ltoes -11.8315
7
root -29.7692 17.0788 1.29902 53.4307 87.3643 54.5876
lowerback 5.86486 1.51839 -4.66472
upperback 0.571425 1.73225 -0.0795333
thorax -2.83468 0.923321 2.39097
lowerneck -23.4022 2.09382 3.39349
upperneck 21.2743 2.01472 -0.902104
head 10.7673 1.11363 -0.560078
rclavicle 8.36109e-015 -1.04719e-014
rhumerus -36.2295 6.81147 -90.2663
rradius 31.3667
rwrist 2.1633
rhand -11.8005 -28.459
rfingers 7.12502
rthumb 14.2492 -57.9501
lclavicle 8.36109e-015 -1.04719e-014
lhumerus -30.5534 -12.653 93.7096
lradius 26.5956
lwrist -9.95294
lhand -19.4524 -28.5334
lfingers 7.12502
lthumb 6.86842 1.33522
rfemur 8.76071 -3.42146 10.8916
rtibia 3.59588
rfoot -13.9624 5.1419
rtoes 4.22871
lfemur 12.014 0.663067 -15.31
ltibia 1.57926
lfoot -14.7063 15.4769
ltoes -11.291
8
root -29.7693 17.0785 1.2989 52.7351 87.3832 53.9351
lowerback 5.91923 1.49617 -4.67577
upperback 0.579319 1.70087 -0.0135878
thorax -2.8569 0.908444 2.46695
lowerneck -23.4113 2.11281 3.26676
upperneck 21.3348 2.0833 -0.884995
head 10.791 1.13709 -0.521892
rclavicle 1.74247e-014 -1.43125e-014
rhumerus -36.2979 6.9349 -90.223
rradius 31.2634
rwrist 2.34316
rhand -11.6521 -29.8172
rfingers 7.12502
rthumb 14.3922 -59.2982
lclavicle 1.74247e-014 -1.43125e-014
lhumerus -30.7279 -12.3312 93.7706
lradius 26.0806
lwrist -11.4623
lhand -20.307 -28.0004
lfingers 7.12502
lthumb 6.04345 1.89336
rfemur 8.7917 -3.33797 10.9615
rtibia 3.6127
rfoot -14.0179 5.06472
rtoes 4.38159
lfemur 12.0991 0.775905 -15.2179
ltibia 1.50421
lfoot -14.6294 15.4646
ltoes -11.4431
9
root -29.77 17.0776 1.29886 53.8425 87.275 55.0323
lowerback 5.9444 1.51239 -4.76403
upperback 0.550788 1.7133 -0.0597745
thorax -2.90273 0.916934 2.46653
lowerneck -23.339 2.08454 3.25159
upperneck 21.3175 2.05609 -0.898355
head 10.7706 1.12215 -0.529121
rclavicle 6.3021e-015 -1.15668e-014
rhumerus -36.3716 6.83195 -90.1891
rradius 31.0465
rwrist 2.61404
rhand -11.6246 -30.2346
rfingers 7.12502
rthumb 14.4187 -59.7137
lclavicle 6.3021e-015 -1.15668e-014
lhumerus -30.9913 -12.3627 93.8566
lradius 25.5214
lwrist -12.9656
lhand -22.3676 -28.0869
lfingers 7.12502
lthumb 4.05385 1.8543
rfemur 8.77766 -3.29844 10.8235
rtibia 3.59611
rfoot -13.9948 5.08027
rtoes 4.76304
lfemur 12.0816 0.881458 -15.329
ltibia 1.49454
lfoot -14.5857 15.47
ltoes -11.8102
10
root -29.7706 17.0769 1.29899 54.9386 87.1688 56.1123
lowerback 5.93808 1.53285 -4.83493
upperback 0.537504 1.7341 -0.135652
thorax -2.91435 0.928385 2.42585
lowerneck -23.2083 2.07595 3.29924
upperneck 21.1989 2.02316 -0.869642
head 10.7025 1.11446 -0.532978
rclavicle -2.76822e-014 1.09487e-015
rhumerus -36.4111 6.65754 -90.1584
rradius 30.8235
rwrist 2.77573
rhand -11.6986 -29.7386
rfingers 7.12502
rthumb 14.3474 -59.2228
lclavicle -2.76822e-014 1.09487e-015
lhumerus -31.1542 -12.2961 93.8467
lradius 25.1343
lwrist -13.5519
lhand -22.6367 -28.1518
lfingers 7.12502
lthumb 3.79398 1.79421
rfemur 8.76796 -3.24138 10.6918
rtibia 3.56798
rfoot -13.9741 5.11194
rtoes 4.95564
lfemur 12.0735 0.873076 -15.4741
ltibia 1.46282
lfoot -14.5753 15.4285
ltoes -11.4602
11
root -29.7703 17.0767 1.29909 55.5489 87.117 56.7272
lowerback 5.92159 1.53417 -4.90494
upperback 0.55332 1.73267 -0.146613
thorax -2.89036 0.927819 2.4545
lowerneck -23.1757 2.08591 3.26962
upperneck 21.1515 2.03482 -0.819208
head 10.6784 1.12344 -0.508397
rclavicle -8.40161e-015 -2.66806e-015
rhumerus -36.4693 6.65049 -90.1084
rradius 30.7252
rwrist 2.83862
rhand -11.7602 -29.3882
rfingers 7.12502
rthumb 14.2881 -58.8766
lclavicle -8.40161e-015 -2.66806e-015
lhumerus -31.1239 -11.8204 93.7315
lradius 24.7839
lwrist -13.7021
lhand -21.6203 -28.4348
lfingers 7.12502
lthumb 4.77542 1.49137
rfemur 8.79142 -3.17873 10.6379
rtibia 3.53168
rfoot -13.9771 5.06227
rtoes 4.78038
lfemur 12.1094 0.852223 -15.5532
ltibia 1.47252
lfoot -14.6374 15.2465
ltoes -10.3431
12
root -29.7712 17.0768 1.2986 56.5613 87.049 57.7256
lowerback 5.90104 1.53314 -5.00328
upperback 0.567555 1.72658 -0.154295
thorax -2.8663 0.925294 2.50291
lowerneck -23.2279 2.09744 3.24151
upperneck 21.1771 2.06198 -0.831265
head 10.6978 1.13178 -0.503413
rclavicle 3.92017e-015 -2.93829e-015
rhumerus -36.5904 6.64272 -90.0423
rradius 30.7234
rwrist 2.94677
rhand -11.8353 -29.2102
rfingers 7.12502
rthumb 14.2157 -58.7037
lclavicle 3.92017e-015 -2.93829e-015
lhumerus -31.1182 -11.2374 93.5794
lradius 24.5503
lwrist -14.1088
lhand -21.9112 -28.6065
lfingers 7.12502
lthumb 4.49449 1.32579
rfemur 8.771 -3.25826 10.5063
rtibia 3.54806
rfoot -13.9918 5.11594
rtoes 4.97158
lfemur 12.1274 0.852985 -15.6664
ltibia 1.43286
lfoot -14.6511 15.1528
ltoes -9.63957
13
root -29.7738 17.0776 1.2973 56.645 86.9794 57.7969
lowerback 5.91085 1.54703 -5.05712
upperback 0.565813 1.74059 -0.173172
thorax -2.87577 0.933138 2.51203
lowerneck -23.1985 2.09134 3.27733
upperneck 21.1738 2.05788 -0.891383
head 10.6922 1.12536 -0.531884
rclavicle -1.23043e-014 -7.58488e-015
rhumerus -36.7603 6.52881 -89.9719
rradius 30.7787
rwrist 3.03966
rhand -11.8311 -29.279
rfingers 7.12502
rthumb 14.2198 -58.7722
lclavicle -1.23043e-014 -7.58488e-015
lhumerus -31.2711 -11.4547 93.7005
lradius 24.4999
lwrist -13.7781
lhand -20.0743 -27.983
lfingers 7.12502
lthumb 6.26812 1.90422
rfemur 8.72188 -3.28431 10.4154
rtibia 3.59013
rfoot -14.0052 5.18375
rtoes 5.26374
lfemur 12.1508 0.809167 -15.772
ltibia 1.26317
lfoot -14.5644 15.3634
ltoes -10.254
14
root -29.7757 17.0781 1.29539 54.4906 87.0043 55.65
lowerback 5.9445 1.56709 -4.95155
upperback 0.568914 1.77273 -0.151278
thorax -2.89151 0.948168 2.47191
lowerneck -23.1706 2.07898 3.26814
upperneck 21.1314 2.04577 -0.897746
head 10.6711 1.11792 -0.534909
rclavicle -9.24426e-016 9.15652e-015
rhumerus -36.8072 6.37705 -89.8823
rradius 30.7249
rwrist 3.11908
rhand -11.723 -29.4691
rfingers 7.12502
rthumb 14.324 -58.9549
lclavicle -9.24426e-016 9.15652e-015
lhumerus -31.2596 -11.2657 93.6908
lradius 24.2001
lwrist -13.7726
lhand -20.34 -28.1512
lfingers 7.12502
lthumb 6.01157 1.7435
rfemur 8.69575 -3.13557 10.5598
rtibia 3.59515
rfoot -14.0121 5.1207
rtoes 5.23151
lfemur 12.2079 0.725116 -15.7231
ltibia 1.17792
lfoot -14.6722 15.5252
ltoes -10.3259
15
root -29.7778 17.0786 1.29595 51.2474 87.1153 52.3908
lowerback 5.94088 1.57752 -4.76175
upperback 0.579627 1.80069 -0.0938638
thorax -2.8766 0.959362 2.42273
lowerneck -23.1938 2.08048 3.27334
upperneck 21.0871 2.05484 -0.94134
head 10.6598 1.11605 -0.550065
rclavicle 5.93636e-016 -5.77718e-015
rhumerus -36.7292 6.29359 -89.8102
rradius 30.5624
rwrist 3.10027
rhand -11.5978 -29.6039
rfingers 7.12502
rthumb 14.4445 -59.0812
lclavicle 5.93636e-016 -5.77718e-015
lhumerus -31.2608 -11.0318 93.6307
lradius 23.9735
lwrist -13.6936
lhand -18.8212 -27.8256
lfingers 7.12502
lthumb 7.47772 2.02224
rfemur 8.62146 -3.01486 10.8332
rtibia 3.64098
rfoot -14.0179 5.02304
rtoes 5.29047
lfemur 12.2297 0.685958 -15.5011
ltibia 1.20904
lfoot -14.8936 15.5087
ltoes -9.65105
